# xmcd CD database file generated by Grip 2.96
# 
# Track frame offsets:
#       150
#       14375
#       26990
#       40602
#       58250
#       72822
#       85245
#       99732
#       110932
#       123125
#       135707
# 
# Disc length: 1950 seconds
# 
# Revision: 0
# Processed by: cddbd v1.4PL0 Copyright (c) Steve Scherf et al.
# Submitted via: Grip 2.96
# 
DISCID=99079c0b
DTITLE=Little Milton - If Walls Could Talk
DYEAR=1900
DGENRE=
TTITLE0=If Walls Could Talk
TTITLE1=Baby, I Love You
TTITLE2=Let's Get Together
TTITLE3=Things I Used To Do
TTITLE4=Kansas City
TTITLE5=Poor Man's Song
TTITLE6=Blues Get Off My Shoulder
TTITLE7=I Play Dirty
TTITLE8=Good To Me As I Am To You
TTITLE9=Your Precious Love
TTITLE10=I Don't Know
EXTD=
EXTT0=
EXTT1=
EXTT2=
EXTT3=
EXTT4=
EXTT5=
EXTT6=
EXTT7=
EXTT8=
EXTT9=
EXTT10=
PLAYORDER=
